
<svg width="49px" height="49px" viewBox="0 0 49 49" version="1.1" xmlns="http://www.w3.org/2000/svg" xmlns:xlink="http://www.w3.org/1999/xlink">
    <!-- Generator: Sketch 44.1 (41455) - http://www.bohemiancoding.com/sketch -->
    <desc>Created with Sketch.</desc>
    <defs>
        <path d="M36.3326387,0 L2.00138927,0 C0.896052496,0 0,0.894938439 0,2.00138927 L0,45.9986107 C0,47.1039475 0.894938439,48 2.00138927,48 L45.9986107,48 C47.1039475,48 48,47.1050616 48,45.9986107 L48,9.00069463 L48,16 L45.3333333,16 L45.3333333,43.9950767 C45.3333333,45.1011449 44.4376008,46 43.3326588,46 L4.66734123,46 C3.55782064,46 2.66666667,45.1023652 2.66666667,43.9950767 L2.66666667,4.00492334 C2.66666667,2.89885511 3.56239918,2 4.66734123,2 L26.6666667,2 L26.6666667,0 L36.3326387,0 Z" id="path-1"></path>
        <rect id="path-2" x="21.3333333" y="22" width="16" height="2"></rect>
        <rect id="path-3" x="8" y="11" width="13.3333333" height="2"></rect>
        <rect id="path-4" x="21.3333333" y="27" width="18.6666667" height="2"></rect>
        <rect id="path-5" x="8" y="37" width="26.6666667" height="2"></rect>
        <rect id="path-6" x="8" y="32" width="32" height="2"></rect>
    </defs>
    <g id="Page-1" stroke="none" stroke-width="1" fill="none" fill-rule="evenodd">
        <g id="iPhone-7" transform="translate(-53.000000, -429.000000)">
            <g id="Document" transform="translate(53.000000, 430.000000)">
                <g id="Rectangle-25">
                    <use fill="#FFFFFF" fill-rule="evenodd" xlink:href="#path-1"></use>
                    <path stroke="#FFFFFF" stroke-width="2" d="M46.3333333,17 L46.3333333,16 L45.3333333,17 L46.3333333,17 Z M47,17 L49,17 L49,9.00069463 L47,9.00069463 L47,17 Z M46.3333333,17 L47,17 L47,45.9986107 C47,46.5523059 46.5521337,47 45.9986107,47 L2.00138927,47 C1.44769406,47 1,46.5521337 1,45.9986107 L1,2.00138927 C1,1.44769406 1.44786626,1 2.00138927,1 L36.3326387,1 L36.3326387,-1 L25.6666667,-1 L25.6666667,2 L26.6666667,1 L4.66734123,1 C3.00996504,1 1.66666667,2.34671708 1.66666667,4.00492334 L1.66666667,43.9950767 C1.66666667,45.6554098 3.00628645,47 4.66734123,47 L43.3326588,47 C44.990035,47 46.3333333,45.6532829 46.3333333,43.9950767 L46.3333333,17 Z"></path>
                </g>
                <path d="M27.6666667,1 C27.6666667,1.00003539 27.6666667,1.00007078 27.6666667,1.00010618 L27.6666667,13.9998938 C27.6666667,14.5545128 28.1097885,15 28.6583163,15 L46.3333333,15 L27.6666667,1 Z" id="Rectangle-28" stroke="#FFFFFF" stroke-width="2"></path>
                <g id="Rectangle-29">
                    <use fill="#FFFFFF" fill-rule="evenodd" xlink:href="#path-2"></use>
                    <rect stroke="#FFFFFF" stroke-width="2" x="22.3333333" y="23" width="14" height="1"></rect>
                </g>
                <rect id="Rectangle-159" stroke="#FFFFFF" x="8.5" y="22.5" width="8.33333333" height="6"></rect>
                <g id="Rectangle-33">
                    <use fill="#FFFFFF" fill-rule="evenodd" xlink:href="#path-3"></use>
                    <rect stroke="#FFFFFF" stroke-width="2" x="9" y="12" width="11.3333333" height="1"></rect>
                </g>
                <g id="Rectangle-30">
                    <use fill="#FFFFFF" fill-rule="evenodd" xlink:href="#path-4"></use>
                    <rect stroke="#FFFFFF" stroke-width="2" x="22.3333333" y="28" width="16.6666667" height="1"></rect>
                </g>
                <g id="Rectangle-34">
                    <use fill="#FFFFFF" fill-rule="evenodd" xlink:href="#path-5"></use>
                    <rect stroke="#FFFFFF" stroke-width="2" x="9" y="38" width="24.6666667" height="1"></rect>
                </g>
                <g id="Rectangle-31">
                    <use fill="#FFFFFF" fill-rule="evenodd" xlink:href="#path-6"></use>
                    <rect stroke="#FFFFFF" stroke-width="2" x="9" y="33" width="30" height="1"></rect>
                </g>
            </g>
        </g>
    </g>
</svg>