
<svg width="50px" height="50px" viewBox="0 0 50 50" version="1.1" xmlns="http://www.w3.org/2000/svg" xmlns:xlink="http://www.w3.org/1999/xlink">
    <!-- Generator: Sketch 44.1 (41455) - http://www.bohemiancoding.com/sketch -->
    <desc>Created with Sketch.</desc>
    <defs></defs>
    <g id="Page-1" stroke="none" stroke-width="1" fill="none" fill-rule="evenodd">
        <g id="Home" transform="translate(-74.000000, -584.000000)" fill-rule="nonzero">
            <g id="protest" transform="translate(74.000000, 584.000000)">
                <path d="M48.6139648,22.690918 L45.6896484,23.2758789 L45.6896484,14.6551758 L48.6139648,15.2401367 C49.4199219,15.4012695 50,16.1087891 50,16.9306641 L50,21.000293 C50,21.822168 49.4199219,22.5298828 48.6139648,22.690918 Z" id="Shape" fill="#D7DEED"></path>
                <path d="M48.6139648,20.1047852 L45.6896484,20.6897461 L45.6896484,23.2759766 L48.6139648,22.6910156 C49.4199219,22.5297852 50,21.8222656 50,21.0003906 L50,18.4141602 C50,19.2360352 49.4199219,19.9435547 48.6139648,20.1047852 Z" id="Shape" fill="#C7CFE2"></path>
                <path d="M2.58623047,25 L1.72412109,25 C0.771875,25 0,24.228125 0,23.2758789 L0,14.6551758 C0,13.7029297 0.771875,12.9310547 1.72412109,12.9310547 L2.58623047,12.9310547 L2.58623047,25 Z" id="Shape" fill="#BE4B50"></path>
                <path d="M22.4137695,9.48271484 L22.4137695,28.4482422 C28.4482422,28.4482422 37.9310547,31.0344727 44.8275391,37.0689453 L44.8275391,0.862109375 C37.9310547,6.89658203 28.4482422,9.48271484 22.4137695,9.48271484 Z" id="Shape" fill="#D7DEED"></path>
                <path d="M46.5517578,37.9310547 L45.6896484,37.9310547 C45.2135742,37.9310547 44.8275391,37.5450195 44.8275391,37.0689453 L44.8275391,0.862109375 C44.8275391,0.386035156 45.2135742,0 45.6896484,0 L46.5517578,0 C47.027832,0 47.4138672,0.386035156 47.4138672,0.862109375 L47.4138672,37.069043 C47.4137695,37.5450195 47.027832,37.9310547 46.5517578,37.9310547 Z" id="Shape" fill="#959CB3"></path>
                <path d="M23.6376953,48.2758789 L23.6376953,48.2758789 C23.2268555,48.2758789 22.8729492,47.9858398 22.7922852,47.5829102 L18.9655273,28.4482422 L9.48271484,28.4482422 L13.3772461,47.9209961 C13.619043,49.1298828 14.6804687,50 15.9132813,50 L23.6376953,50 C24.1137695,50 24.4998047,49.6139648 24.4998047,49.1378906 C24.4998047,48.6618164 24.1138672,48.2758789 23.6376953,48.2758789 Z" id="Shape" fill="#D2555A"></path>
                <path d="M20.6896484,28.4482422 L20.6896484,29.4420898 C20.6896484,29.8635742 20.3850586,30.2231445 19.9692383,30.2923828 L6.17617187,32.5912109 C5.65078125,32.6788086 5.17236328,32.2736328 5.17236328,31.740918 L5.17236328,28.4482422 L20.6896484,28.4482422 Z" id="Shape" fill="#BE4B50"></path>
                <path d="M22.4137695,28.4482422 L5.17246094,28.4482422 C3.26806641,28.4482422 1.72421875,26.9043945 1.72421875,25 L1.72421875,12.9310547 C1.72421875,11.0266602 3.26806641,9.4828125 5.17246094,9.4828125 L22.4138672,9.4828125 L22.4138672,28.4482422 L22.4137695,28.4482422 Z" id="Shape" fill="#FF6464"></path>
                <rect id="Rectangle-path" fill="#959CB3" x="20.6896484" y="9.48271484" width="1.72412109" height="18.9655273"></rect>
                <path d="M1.72412109,22.4137695 L20.6896484,22.4137695 L20.6896484,28.4482422 L5.17246094,28.4482422 C3.26806641,28.4482422 1.72421875,26.9043945 1.72421875,25 L1.72421875,22.4137695 L1.72412109,22.4137695 Z" id="Shape" fill="#D2555A"></path>
                <rect id="Rectangle-path" fill="#707487" x="20.6896484" y="22.4137695" width="1.72412109" height="6.03447266"></rect>
                <path d="M22.4137695,28.4482422 C28.4482422,28.4482422 37.9310547,31.0344727 44.8275391,37.0689453 L44.8275391,26.7241211 C37.930957,23.8504883 28.4482422,22.4137695 22.4137695,22.4137695 L22.4137695,28.4482422 Z" id="Shape" fill="#C7CFE2"></path>
                <path d="M46.5517578,27.5862305 L45.6896484,27.5862305 C45.2135742,27.5862305 44.8275391,27.2001953 44.8275391,26.7241211 L44.8275391,37.0689453 C44.8275391,37.5450195 45.2135742,37.9310547 45.6896484,37.9310547 L46.5517578,37.9310547 C47.027832,37.9310547 47.4138672,37.5450195 47.4138672,37.0689453 L47.4138672,26.7241211 C47.4137695,27.2001953 47.027832,27.5862305 46.5517578,27.5862305 Z" id="Shape" fill="#707487"></path>
            </g>
        </g>
    </g>
</svg>