
<svg width="62px" height="50px" viewBox="0 0 62 50" version="1.1" xmlns="http://www.w3.org/2000/svg" xmlns:xlink="http://www.w3.org/1999/xlink">
    <!-- Generator: Sketch 44.1 (41455) - http://www.bohemiancoding.com/sketch -->
    <desc>Created with Sketch.</desc>
    <defs></defs>
    <g id="Page-1" stroke="none" stroke-width="1" fill="none" fill-rule="evenodd">
        <g id="Home" transform="translate(-249.000000, -446.000000)" fill-rule="nonzero">
            <g id="open-book" transform="translate(249.000000, 446.000000)">
                <path d="M61.2400017,45.8022584 L61.2400017,49.8848854 C56.1054103,49.8848854 49.0600591,45.3055207 41.6159302,45.3055207 C37.2297347,45.3055207 34.4807524,47.1154498 32.8287076,48.9241828 L30.6200008,48.9241828 L27.8981698,36.2434358 L61.2400017,45.8022584 Z" id="Shape" fill="#1B4145"></path>
                <path d="M30.6200008,36.2434358 L30.6200008,48.9241828 L28.4112941,48.9241828 C26.7591297,47.1155694 24.0101474,45.3055207 19.6240715,45.3055207 C12.1800622,45.3055207 5.134711,49.8848854 -2.84217094e-14,49.8848854 L-2.84217094e-14,45.8022584 L30.6200008,36.2434358 Z" id="Shape" fill="#609399"></path>
                <path d="M61.2400017,4.69119943 L61.2400017,45.8022584 C56.1054103,45.8022584 49.0600591,41.2228938 41.6159302,41.2228938 C37.2297347,41.2228938 34.4807524,43.0328229 32.8287076,44.8415559 L30.6200008,44.8415559 L25.1764584,26.0960153 L30.6200008,7.35035512 C30.6200008,7.35035512 32.8436588,0.111834769 41.6159302,0.111834769 C49.0600591,0.111834769 56.1054103,4.69119943 61.2400017,4.69119943 Z" id="Shape" fill="#FFFFFF"></path>
                <path d="M30.6200008,7.35035512 L30.6200008,44.8414363 L28.4112941,44.8414363 C26.7591297,43.0315072 24.0101474,41.2227742 19.6240715,41.2227742 C12.1800622,41.2227742 5.134711,45.8021388 -2.84217094e-14,45.8021388 L-2.84217094e-14,4.69119943 C5.13459139,4.69119943 12.1799426,0.111834769 19.6240715,0.111834769 C28.3963429,0.111834769 30.6200008,7.35035512 30.6200008,7.35035512 Z" id="Shape" fill="#E5E5E5"></path>
            </g>
        </g>
    </g>
</svg>