<svg width="59px" height="48px" viewBox="0 0 59 48" version="1.1" xmlns="http://www.w3.org/2000/svg" xmlns:xlink="http://www.w3.org/1999/xlink">
    <!-- Generator: Sketch 44.1 (41455) - http://www.bohemiancoding.com/sketch -->
    <desc>Created with Sketch.</desc>
    <defs></defs>
    <g id="Page-1" stroke="none" stroke-width="1" fill="none" fill-rule="evenodd">
        <g id="Home" transform="translate(-70.000000, -461.000000)" fill-rule="nonzero" fill="#FFFFFF">
            <g id="calendar-(1)" transform="translate(70.000000, 461.000000)">
                <path d="M16.9563429,32.5065143 C16.5100571,32.0601143 15.7864,32.0601143 15.3401143,32.5064 L9.6344,38.2122286 L7.5168,36.0947429 C7.07051429,35.6485714 6.34685714,35.6485714 5.90057143,36.0947429 C5.45428571,36.5410286 5.45428571,37.2646857 5.90057143,37.7110857 L8.82628571,40.6366857 C9.04948571,40.8597714 9.34194286,40.9714286 9.6344,40.9714286 C9.92685714,40.9714286 10.2194286,40.8597714 10.4425143,40.6366857 L16.9563429,34.1228571 C17.4026286,33.6765714 17.4026286,32.9529143 16.9563429,32.5065143 Z" id="Shape"></path>
                <path d="M15.0859429,16.3429714 L15.0589714,16.3429714 C14.4277714,16.3429714 13.9161143,16.8547429 13.9161143,17.4858286 C13.9161143,18.1169143 14.4277714,18.6286857 15.0589714,18.6286857 L15.0859429,18.6286857 C15.7171429,18.6286857 16.2288,18.1169143 16.2288,17.4858286 C16.2288,16.8547429 15.7171429,16.3429714 15.0859429,16.3429714 Z" id="Shape"></path>
                <path d="M49.3982857,16.3429714 L49.3713143,16.3429714 C48.7401143,16.3429714 48.2284571,16.8547429 48.2284571,17.4858286 C48.2284571,18.1169143 48.7401143,18.6286857 49.3713143,18.6286857 L49.3982857,18.6286857 C50.0294857,18.6286857 50.5411429,18.1169143 50.5411429,17.4858286 C50.5411429,16.8547429 50.0294857,16.3429714 49.3982857,16.3429714 Z" id="Shape"></path>
                <path d="M55.0858286,3.19988571 L53.9428571,3.19988571 L53.9428571,1.14285714 C53.9428571,0.511771429 53.4312,0 52.8,0 C52.1688,0 51.6571429,0.511771429 51.6571429,1.14285714 L51.6571429,3.19988571 L49.3714286,3.19988571 L49.3714286,1.14285714 C49.3714286,0.511771429 48.8597714,0 48.2285714,0 C47.5973714,0 47.0857143,0.511771429 47.0857143,1.14285714 L47.0857143,3.19988571 L44.8001143,3.19988571 L44.8001143,1.14285714 C44.8001143,0.511771429 44.2884571,0 43.6572571,0 C43.0260571,0 42.5144,0.511771429 42.5144,1.14285714 L42.5144,3.19988571 L40.2286857,3.19988571 L40.2286857,1.14285714 C40.2286857,0.511771429 39.7170286,0 39.0858286,0 C38.4546286,0 37.9429714,0.511771429 37.9429714,1.14285714 L37.9429714,3.19988571 L35.6572571,3.19988571 L35.6572571,1.14285714 C35.6572571,0.511771429 35.1456,0 34.5144,0 C33.8832,0 33.3715429,0.511771429 33.3715429,1.14285714 L33.3715429,3.19988571 L31.0858286,3.19988571 L31.0858286,1.14285714 C31.0858286,0.511771429 30.5741714,0 29.9429714,0 C29.3117714,0 28.8001143,0.511771429 28.8001143,1.14285714 L28.8001143,3.19988571 L26.5144,3.19988571 L26.5144,1.14285714 C26.5144,0.511771429 26.0027429,0 25.3715429,0 C24.7403429,0 24.2286857,0.511771429 24.2286857,1.14285714 L24.2286857,3.19988571 L21.9429714,3.19988571 L21.9429714,1.14285714 C21.9429714,0.511771429 21.4313143,0 20.8001143,0 C20.1689143,0 19.6572571,0.511771429 19.6572571,1.14285714 L19.6572571,3.19988571 L17.3715429,3.19988571 L17.3715429,1.14285714 C17.3715429,0.511771429 16.8598857,0 16.2286857,0 C15.5974857,0 15.0858286,0.511771429 15.0858286,1.14285714 L15.0858286,3.19988571 L12.8001143,3.19988571 L12.8001143,1.14285714 C12.8001143,0.511771429 12.2884571,0 11.6572571,0 C11.0260571,0 10.5144,0.511771429 10.5144,1.14285714 L10.5144,3.19988571 L9.37142857,3.19988571 C7.48091429,3.19988571 5.94285714,4.73794286 5.94285714,6.62845714 L5.94285714,26.5481143 C2.40411429,28.4926857 0,32.2563429 0,36.5714286 C0,42.8732571 5.12685714,48 11.4285714,48 C15.7436571,48 19.5074286,45.5958857 21.452,42.0570286 L55.0858286,42.0570286 C56.9763429,42.0570286 58.5142857,40.5189714 58.5142857,38.6284571 L58.5142857,6.62845714 C58.5142857,4.73794286 56.9763429,3.19988571 55.0858286,3.19988571 Z M11.4285714,45.7142857 C6.3872,45.7142857 2.28571429,41.6128 2.28571429,36.5714286 C2.28571429,31.5300571 6.3872,27.4285714 11.4285714,27.4285714 C16.4699429,27.4285714 20.5714286,31.5300571 20.5714286,36.5714286 C20.5714286,41.6128 16.4699429,45.7142857 11.4285714,45.7142857 Z M56.2285714,38.6284571 C56.2285714,39.2586286 55.716,39.7713143 55.0858286,39.7713143 L51.9812571,39.7713143 L56.2285714,35.5238857 L56.2285714,38.6284571 Z M50.3649143,38.1549714 L50.3649143,35.4811429 C50.3649143,34.6133714 51.0708571,33.9074286 51.9385143,33.9074286 L54.6122286,33.9074286 L54.6122286,33.9075429 L50.3649143,38.1549714 Z M56.2285714,16.3427429 L52.6818286,16.3427429 C52.0506286,16.3427429 51.5389714,16.8544 51.5389714,17.4856 C51.5389714,18.1166857 52.0506286,18.6284571 52.6818286,18.6284571 L56.2285714,18.6284571 L56.2285714,31.6218286 L51.9385143,31.6218286 C49.8105143,31.6218286 48.0792,33.3531429 48.0792,35.4812571 L48.0792,39.7713143 L22.4005714,39.7713143 C22.6973714,38.7554286 22.8571429,37.6818286 22.8571429,36.5714286 C22.8571429,30.2696 17.7302857,25.1428571 11.4285714,25.1428571 C10.3181714,25.1428571 9.24445714,25.3026286 8.22857143,25.5994286 L8.22857143,18.6284571 L11.7754286,18.6284571 C12.4066286,18.6284571 12.9182857,18.1166857 12.9182857,17.4856 C12.9182857,16.8544 12.4066286,16.3427429 11.7754286,16.3427429 L8.22857143,16.3427429 L8.22857143,12.3427429 L56.2285714,12.3427429 L56.2285714,16.3427429 Z M56.2285714,10.0570286 L8.22857143,10.0570286 L8.22857143,6.62845714 C8.22857143,5.99828571 8.74125714,5.4856 9.37142857,5.4856 L10.5144,5.4856 L10.5144,6.04971429 C10.5144,6.6808 11.0260571,7.19257143 11.6572571,7.19257143 C12.2884571,7.19257143 12.8001143,6.6808 12.8001143,6.04971429 L12.8001143,5.4856 L15.0858286,5.4856 L15.0858286,6.04971429 C15.0858286,6.6808 15.5974857,7.19257143 16.2286857,7.19257143 C16.8598857,7.19257143 17.3715429,6.6808 17.3715429,6.04971429 L17.3715429,5.4856 L19.6572571,5.4856 L19.6572571,6.04971429 C19.6572571,6.6808 20.1689143,7.19257143 20.8001143,7.19257143 C21.4313143,7.19257143 21.9429714,6.6808 21.9429714,6.04971429 L21.9429714,5.4856 L24.2286857,5.4856 L24.2286857,6.04971429 C24.2286857,6.6808 24.7403429,7.19257143 25.3715429,7.19257143 C26.0027429,7.19257143 26.5144,6.6808 26.5144,6.04971429 L26.5144,5.4856 L28.8001143,5.4856 L28.8001143,6.04971429 C28.8001143,6.6808 29.3117714,7.19257143 29.9429714,7.19257143 C30.5741714,7.19257143 31.0858286,6.6808 31.0858286,6.04971429 L31.0858286,5.4856 L33.3715429,5.4856 L33.3715429,6.04971429 C33.3715429,6.6808 33.8832,7.19257143 34.5144,7.19257143 C35.1456,7.19257143 35.6572571,6.6808 35.6572571,6.04971429 L35.6572571,5.4856 L37.9429714,5.4856 L37.9429714,6.04971429 C37.9429714,6.6808 38.4546286,7.19257143 39.0858286,7.19257143 C39.7170286,7.19257143 40.2286857,6.6808 40.2286857,6.04971429 L40.2286857,5.4856 L42.5144,5.4856 L42.5144,6.04971429 C42.5144,6.6808 43.0260571,7.19257143 43.6572571,7.19257143 C44.2884571,7.19257143 44.8001143,6.6808 44.8001143,6.04971429 L44.8001143,5.4856 L47.0857143,5.4856 L47.0857143,6.04971429 C47.0857143,6.6808 47.5973714,7.19257143 48.2285714,7.19257143 C48.8597714,7.19257143 49.3714286,6.6808 49.3714286,6.04971429 L49.3714286,5.4856 L51.6571429,5.4856 L51.6571429,6.04971429 C51.6571429,6.6808 52.1688,7.19257143 52.8,7.19257143 C53.4312,7.19257143 53.9428571,6.6808 53.9428571,6.04971429 L53.9428571,5.4856 L55.0858286,5.4856 C55.716,5.4856 56.2285714,5.99828571 56.2285714,6.62845714 L56.2285714,10.0570286 Z" id="Shape"></path>
                <path d="M43.6571429,16.3427429 L20.8,16.3427429 C20.1688,16.3427429 19.6571429,16.8544 19.6571429,17.4856 L19.6571429,23.1998857 C19.6571429,23.8309714 20.1688,24.3427429 20.8,24.3427429 L25.3714286,24.3427429 L25.3714286,34.6284571 C25.3714286,35.2595429 25.8830857,35.7713143 26.5142857,35.7713143 L43.6571429,35.7713143 C44.2883429,35.7713143 44.8,35.2595429 44.8,34.6284571 L44.8,17.4856 C44.8,16.8544 44.2883429,16.3427429 43.6571429,16.3427429 Z M25.3714286,22.0570286 L21.9428571,22.0570286 L21.9428571,18.6284571 L25.3714286,18.6284571 L25.3714286,22.0570286 Z M31.0857143,33.4856 L27.6571429,33.4856 L27.6571429,30.0570286 L31.0857143,30.0570286 L31.0857143,33.4856 Z M31.0857143,27.7713143 L27.6571429,27.7713143 L27.6571429,24.3427429 L31.0857143,24.3427429 L31.0857143,27.7713143 Z M31.0857143,22.0570286 L27.6571429,22.0570286 L27.6571429,18.6284571 L31.0857143,18.6284571 L31.0857143,22.0570286 Z M36.8,33.4856 L33.3714286,33.4856 L33.3714286,30.0570286 L36.8,30.0570286 L36.8,33.4856 Z M36.8,27.7713143 L33.3714286,27.7713143 L33.3714286,24.3427429 L36.8,24.3427429 L36.8,27.7713143 Z M36.8,22.0570286 L33.3714286,22.0570286 L33.3714286,18.6284571 L36.8,18.6284571 L36.8,22.0570286 Z M42.5142857,33.4856 L39.0857143,33.4856 L39.0857143,30.0570286 L42.5142857,30.0570286 L42.5142857,33.4856 Z M42.5142857,27.7713143 L39.0857143,27.7713143 L39.0857143,24.3427429 L42.5142857,24.3427429 L42.5142857,27.7713143 Z M42.5142857,22.0570286 L39.0857143,22.0570286 L39.0857143,18.6284571 L42.5142857,18.6284571 L42.5142857,22.0570286 Z" id="Shape"></path>
            </g>
        </g>
    </g>
</svg>