
<svg width="46px" height="60px" viewBox="0 0 46 60" version="1.1" xmlns="http://www.w3.org/2000/svg" xmlns:xlink="http://www.w3.org/1999/xlink">
    <!-- Generator: Sketch 44.1 (41455) - http://www.bohemiancoding.com/sketch -->
    <desc>Created with Sketch.</desc>
    <defs></defs>
    <g id="Page-1" stroke="none" stroke-width="1" fill="none" fill-rule="evenodd">
        <g id="Home" transform="translate(-257.000000, -566.000000)" fill-rule="nonzero" fill="#FFFFFF">
            <g id="user-(1)" transform="translate(257.000000, 566.000000)">
                <path d="M41.014,42.889 L31.461,38.113 C30.56,37.662 30,36.756 30,35.748 L30,32.367 C30.229,32.087 30.47,31.768 30.719,31.416 C31.958,29.666 32.951,27.718 33.673,25.617 C35.084,24.97 36,23.575 36,22 L36,18 C36,17.037 35.64,16.104 35,15.375 L35,10.056 C35.056,9.506 35.276,6.232 32.908,3.531 C30.854,1.188 27.521,0 23,0 C18.479,0 15.146,1.188 13.092,3.53 C10.724,6.231 10.944,9.506 11,10.056 L11,15.375 C10.36,16.104 10,17.037 10,18 L10,22 C10,23.217 10.553,24.352 11.497,25.109 C12.413,28.736 14.33,31.469 15,32.346 L15,35.655 C15,36.623 14.472,37.511 13.623,37.975 L4.702,42.841 C1.801,44.424 0,47.458 0,50.762 L0,54 C0,58.746 15.045,60 23,60 C30.955,60 46,58.746 46,54 L46,50.957 C46,47.519 44.089,44.427 41.014,42.889 Z M44,54 C44,55.357 36.588,58 23,58 C9.412,58 2,55.357 2,54 L2,50.762 C2,48.191 3.402,45.828 5.659,44.598 L14.58,39.732 C16.073,38.917 17,37.354 17,35.655 L17,31.636 L16.767,31.358 C16.743,31.329 14.292,28.364 13.357,24.293 L13.266,23.897 L12.925,23.677 C12.346,23.303 12,22.676 12,22 L12,18 C12,17.439 12.238,16.916 12.67,16.525 L13,16.228 L13,10 L12.991,9.869 C12.988,9.842 12.648,7.07 14.596,4.848 C16.253,2.958 19.081,2 23,2 C26.905,2 29.727,2.951 31.386,4.828 C33.333,7.029 33.011,9.845 33.009,9.869 L33,16.228 L33.33,16.526 C33.762,16.916 34,17.439 34,18 L34,22 C34,22.873 33.428,23.637 32.578,23.899 L32.08,24.052 L31.92,24.547 C31.251,26.628 30.298,28.55 29.086,30.26 C28.789,30.681 28.5,31.054 28.249,31.339 L28,31.623 L28,35.748 C28,37.518 28.983,39.109 30.566,39.901 L40.119,44.677 C42.513,45.874 44,48.28 44,50.957 L44,54 Z" id="Shape"></path>
            </g>
        </g>
    </g>
</svg>