
<svg width="50px" height="50px" viewBox="0 0 50 50" version="1.1" xmlns="http://www.w3.org/2000/svg" xmlns:xlink="http://www.w3.org/1999/xlink">
    <!-- Generator: Sketch 44.1 (41455) - http://www.bohemiancoding.com/sketch -->
    <desc>Created with Sketch.</desc>
    <defs></defs>
    <g id="Page-1" stroke="none" stroke-width="1" fill="none" fill-rule="evenodd">
        <g id="Home" transform="translate(-303.000000, -347.000000)" fill-rule="nonzero" fill="#FFFFFF">
            <g id="right-arrow" transform="translate(303.000000, 347.000000)">
                <path d="M34.3722222,23.157619 L27.3287302,16.1150794 C26.3555556,15.1415873 24.7769841,15.1415873 23.804127,16.1150794 L23.8053968,16.1150794 C22.8325397,17.0866667 22.8325397,18.6655556 23.8053968,19.6384127 L26.5973016,22.4325397 L16.2028571,22.4325397 C14.8273016,22.4325397 13.7106349,23.5488889 13.7106349,24.9247619 L13.7106349,24.9260317 C13.7106349,26.3019048 14.8273016,27.418254 16.2028571,27.418254 L26.5985714,27.418254 L23.8053968,30.2120635 C22.8325397,31.1853968 22.8325397,32.7626984 23.8053968,33.7360317 C24.7771429,34.71 26.3555556,34.71 27.3287302,33.7360317 L34.3779365,26.6880952 C35.3506349,25.7155556 35.3506349,24.1360317 34.3779365,23.1628571 C34.3761905,23.1601587 34.3736508,23.1587302 34.3722222,23.157619 Z M37.3861905,3.34238095 C25.4663492,-3.53825397 10.2244444,0.544920635 3.34333333,12.4636508 C-3.53857143,24.3836508 0.544444444,39.6253968 12.4646032,46.5085714 C24.3831746,53.39 39.6263492,49.3061905 46.5084127,37.3863492 C53.3911111,25.4671429 49.3047619,10.2234921 37.3861905,3.34238095 Z M42.1906349,34.8936508 C36.6846032,44.43 24.491746,47.6963492 14.9566667,42.1909524 C5.42190476,36.6853968 2.1531746,24.4926984 7.65873016,14.9569841 C13.1638095,5.42079365 25.3580952,2.15349206 34.8933333,7.65873016 C44.4284127,13.164127 47.6960317,25.3592063 42.1906349,34.8936508 Z" id="Shape"></path>
            </g>
        </g>
    </g>
</svg>