
<svg width="48px" height="48px" viewBox="0 0 48 48" version="1.1" xmlns="http://www.w3.org/2000/svg" xmlns:xlink="http://www.w3.org/1999/xlink">
    <!-- Generator: Sketch 44.1 (41455) - http://www.bohemiancoding.com/sketch -->
    <desc>Created with Sketch.</desc>
    <defs>
        <rect id="path-1" x="2" y="10" width="44" height="2"></rect>
        <rect id="path-2" x="10" y="0" width="2" height="8" rx="1"></rect>
        <rect id="path-3" x="36" y="0" width="2" height="8" rx="1"></rect>
        <rect id="path-4" x="10" y="0" width="6" height="6" rx="1"></rect>
        <rect id="path-5" x="20" y="0" width="6" height="6" rx="1"></rect>
        <rect id="path-6" x="30" y="0" width="6" height="6" rx="1"></rect>
        <rect id="path-7" x="0" y="10" width="6" height="6" rx="1"></rect>
        <rect id="path-8" x="10" y="10" width="6" height="6" rx="1"></rect>
        <rect id="path-9" x="20" y="10" width="6" height="6" rx="1"></rect>
        <rect id="path-10" x="30" y="10" width="6" height="6" rx="1"></rect>
        <rect id="path-11" x="0" y="20" width="6" height="6" rx="1"></rect>
        <rect id="path-12" x="10" y="20" width="6" height="6" rx="1"></rect>
        <rect id="path-13" x="20" y="20" width="6" height="6" rx="1"></rect>
    </defs>
    <g id="Page-1" stroke="none" stroke-width="1" fill="none" fill-rule="evenodd">
        <g id="iPhone-7" transform="translate(-182.000000, -297.000000)">
            <g id="Calendar" transform="translate(182.000000, 297.000000)">
                <rect id="Rectangle-143" stroke="#FFFFFF" stroke-width="2" x="1" y="5" width="46" height="42" rx="2"></rect>
                <g id="Rectangle-156">
                    <use fill="#FFFFFF" fill-rule="evenodd" xlink:href="#path-1"></use>
                    <rect stroke="#FFFFFF" stroke-width="2" x="3" y="11" width="42" height="1"></rect>
                </g>
                <g id="Rectangle-157">
                    <use fill="#FFFFFF" fill-rule="evenodd" xlink:href="#path-2"></use>
                    <rect stroke="#FFFFFF" stroke-width="2" x="11" y="1" width="1" height="6" rx="0.5"></rect>
                </g>
                <g id="Rectangle-158">
                    <use fill="#FFFFFF" fill-rule="evenodd" xlink:href="#path-3"></use>
                    <rect stroke="#FFFFFF" stroke-width="2" x="37" y="1" width="1" height="6" rx="0.5"></rect>
                </g>
                <g id="Cells" transform="translate(6.000000, 16.000000)">
                    <g id="Rectangle-145">
                        <use fill="#FFFFFF" fill-rule="evenodd" xlink:href="#path-4"></use>
                        <rect stroke="#FFFFFF" stroke-width="2" x="11" y="1" width="4" height="4" rx="1"></rect>
                    </g>
                    <g id="Rectangle-146">
                        <use fill="#FFFFFF" fill-rule="evenodd" xlink:href="#path-5"></use>
                        <rect stroke="#FFFFFF" stroke-width="2" x="21" y="1" width="4" height="4" rx="1"></rect>
                    </g>
                    <g id="Rectangle-147">
                        <use fill="#FFFFFF" fill-rule="evenodd" xlink:href="#path-6"></use>
                        <rect stroke="#FFFFFF" stroke-width="2" x="31" y="1" width="4" height="4" rx="1"></rect>
                    </g>
                    <g id="Rectangle-151">
                        <use fill="#FFFFFF" fill-rule="evenodd" xlink:href="#path-7"></use>
                        <rect stroke="#FFFFFF" stroke-width="2" x="1" y="11" width="4" height="4" rx="1"></rect>
                    </g>
                    <g id="Rectangle-148">
                        <use fill="#FFFFFF" fill-rule="evenodd" xlink:href="#path-8"></use>
                        <rect stroke="#FFFFFF" stroke-width="2" x="11" y="11" width="4" height="4" rx="1"></rect>
                    </g>
                    <g id="Rectangle-149">
                        <use fill="#FFFFFF" fill-rule="evenodd" xlink:href="#path-9"></use>
                        <rect stroke="#FFFFFF" stroke-width="2" x="21" y="11" width="4" height="4" rx="1"></rect>
                    </g>
                    <g id="Rectangle-150">
                        <use fill="#FFFFFF" fill-rule="evenodd" xlink:href="#path-10"></use>
                        <rect stroke="#FFFFFF" stroke-width="2" x="31" y="11" width="4" height="4" rx="1"></rect>
                    </g>
                    <g id="Rectangle-155">
                        <use fill="#FFFFFF" fill-rule="evenodd" xlink:href="#path-11"></use>
                        <rect stroke="#FFFFFF" stroke-width="2" x="1" y="21" width="4" height="4" rx="1"></rect>
                    </g>
                    <g id="Rectangle-152">
                        <use fill="#FFFFFF" fill-rule="evenodd" xlink:href="#path-12"></use>
                        <rect stroke="#FFFFFF" stroke-width="2" x="11" y="21" width="4" height="4" rx="1"></rect>
                    </g>
                    <g id="Rectangle-153">
                        <use fill="#FFFFFF" fill-rule="evenodd" xlink:href="#path-13"></use>
                        <rect stroke="#FFFFFF" stroke-width="2" x="21" y="21" width="4" height="4" rx="1"></rect>
                    </g>
                </g>
            </g>
        </g>
    </g>
</svg>